<svg xmlns="http://www.w3.org/2000/svg" viewBox="0 0 1024 1024">
  <defs>
    <linearGradient id="shield" x1="0%" y1="0%" x2="100%" y2="100%">
      <stop offset="0%" style="stop-color:#60a5fa"/>
      <stop offset="100%" style="stop-color:#3b82f6"/>
    </linearGradient>
    <linearGradient id="glow" x1="0%" y1="0%" x2="100%" y2="100%">
      <stop offset="0%" style="stop-color:#4ade80"/>
      <stop offset="100%" style="stop-color:#22c55e"/>
    </linearGradient>
  </defs>
  <!-- Shield -->
  <path d="M512 100 C512 100 220 200 220 200 L220 520 C220 740 512 924 512 924 C512 924 804 740 804 520 L804 200 Z" fill="#1a1b3a" stroke="url(#shield)" stroke-width="12"/>
  <!-- Unlocked padlock body -->
  <rect x="400" y="460" width="224" height="180" rx="24" fill="none" stroke="url(#glow)" stroke-width="16"/>
  <!-- Unlocked shackle (open) -->
  <path d="M460 460 L460 380 C460 310 512 280 564 280 C616 280 624 310 624 380 L624 410" fill="none" stroke="url(#glow)" stroke-width="16" stroke-linecap="round"/>
  <!-- Keyhole -->
  <circle cx="512" cy="530" r="22" fill="url(#glow)"/>
  <rect x="504" y="544" width="16" height="36" rx="6" fill="url(#glow)"/>
</svg>
